# Blender v3.1.2 OBJ File: ''
# www.blender.org
mtllib bg.mtl
o Cube.001
v -200.000015 -199.999954 -200.000031
v -200.000015 -200.000015 199.999969
v 199.999985 -200.000046 199.999969
v 199.999985 -199.999985 -200.000031
v -199.999985 199.999985 200.000031
v 200.000015 199.999954 200.000031
v 200.000015 200.000015 -199.999969
v -199.999985 200.000046 -199.999969
vt 0.625000 0.750000
vt 0.875000 0.500000
vt 0.625000 0.500000
vt 0.375000 1.000000
vt 0.375000 0.750000
vt 0.375000 0.250000
vt 0.625000 0.000000
vt 0.375000 0.000000
vt 0.375000 0.500000
vt 0.625000 0.250000
vt 0.875000 0.750000
vt 0.625000 1.000000
vn 0.0000 1.0000 0.0000
vn 0.0000 0.0000 -1.0000
vn -1.0000 0.0000 0.0000
vn 1.0000 -0.0000 -0.0000
vn 0.0000 -0.0000 1.0000
usemtl Material.001
s 1
f 2/1/1 4/2/1 1/3/1
f 6/4/2 2/1/2 5/5/2
f 7/6/3 3/7/3 6/8/3
f 5/5/4 1/3/4 8/9/4
f 8/9/5 4/10/5 7/6/5
f 2/1/1 3/11/1 4/2/1
f 6/4/2 3/12/2 2/1/2
f 7/6/3 4/10/3 3/7/3
f 5/5/4 2/1/4 1/3/4
f 8/9/5 1/3/5 4/10/5
