# Blender v3.1.2 OBJ File: 'stage.blend'
# www.blender.org
mtllib stage.mtl
o 円_円.002
v 0.003938 0.000000 -1.000000
v -0.191153 0.000000 -0.980785
v -0.378746 0.000000 -0.923880
v -0.551632 0.000000 -0.831470
v -0.703169 0.000000 -0.707107
v -0.827532 0.000000 -0.555570
v -0.919942 0.000000 -0.382683
v -0.976847 0.000000 -0.195090
v -0.996062 0.000000 0.000000
v -0.976847 0.000000 0.195090
v -0.919942 0.000000 0.382683
v -0.827532 0.000000 0.555570
v -0.703169 0.000000 0.707107
v -0.551632 0.000000 0.831470
v -0.378746 0.000000 0.923880
v -0.191153 0.000000 0.980785
v 0.003938 0.000000 1.000000
v 0.199028 0.000000 0.980785
v 0.386621 0.000000 0.923880
v 0.559508 0.000000 0.831470
v 0.711045 0.000000 0.707107
v 0.835407 0.000000 0.555570
v 0.927817 0.000000 0.382684
v 0.984723 0.000000 0.195090
v 1.003938 0.000000 -0.000000
v 0.984723 0.000000 -0.195090
v 0.927817 0.000000 -0.382684
v 0.835408 0.000000 -0.555570
v 0.711045 0.000000 -0.707107
v 0.559508 0.000000 -0.831470
v 0.386621 0.000000 -0.923880
v 0.199028 0.000000 -0.980785
v 0.003938 0.000000 -1.311222
v -0.251869 0.000000 -1.286028
v -0.497845 0.000000 -1.211411
v -0.724538 0.000000 -1.090241
v -0.923236 0.000000 -0.927174
v -1.086304 0.000000 -0.728476
v -1.207474 0.000000 -0.501783
v -1.282090 0.000000 -0.255807
v -1.307285 0.000000 0.000000
v -1.282090 0.000000 0.255807
v -1.207474 0.000000 0.501783
v -1.086304 0.000000 0.728476
v -0.923236 0.000000 0.927174
v -0.724538 0.000000 1.090242
v -0.497845 0.000000 1.211411
v -0.251869 0.000000 1.286028
v 0.003938 0.000000 1.311222
v 0.259744 0.000000 1.286028
v 0.505721 0.000000 1.211411
v 0.732414 0.000000 1.090241
v 0.931112 0.000000 0.927174
v 1.094179 0.000000 0.728476
v 1.215349 0.000000 0.501783
v 1.289965 0.000000 0.255807
v 1.315160 0.000000 -0.000000
v 1.289965 0.000000 -0.255807
v 1.215349 0.000000 -0.501783
v 1.094179 0.000000 -0.728476
v 0.931112 0.000000 -0.927174
v 0.732414 0.000000 -1.090241
v 0.505721 0.000000 -1.211411
v 0.259744 0.000000 -1.286028
v 0.000000 -0.359914 -1.000000
v -0.195090 -0.359914 -0.980785
v -0.382683 -0.359914 -0.923879
v -0.555570 -0.359914 -0.831470
v -0.707107 -0.359914 -0.707107
v -0.831470 -0.359914 -0.555570
v -0.923879 -0.359914 -0.382683
v -0.980785 -0.359914 -0.195090
v -1.000000 -0.359914 0.000000
v -0.980785 -0.359914 0.195090
v -0.923880 -0.359914 0.382683
v -0.831470 -0.359914 0.555570
v -0.707107 -0.359914 0.707107
v -0.555570 -0.359914 0.831470
v -0.382683 -0.359914 0.923880
v -0.195090 -0.359914 0.980785
v 0.000000 -0.359914 1.000000
v 0.195090 -0.359914 0.980785
v 0.382683 -0.359914 0.923880
v 0.555570 -0.359914 0.831470
v 0.707107 -0.359914 0.707107
v 0.831470 -0.359914 0.555570
v 0.923880 -0.359914 0.382684
v 0.980785 -0.359914 0.195090
v 1.000000 -0.359914 0.000000
v 0.980785 -0.359914 -0.195090
v 0.923880 -0.359914 -0.382684
v 0.831470 -0.359914 -0.555570
v 0.707107 -0.359914 -0.707107
v 0.555570 -0.359914 -0.831470
v 0.382683 -0.359914 -0.923880
v 0.195090 -0.359914 -0.980785
v 0.000000 -0.359914 -1.311222
v -0.255807 -0.359914 -1.286028
v -0.501783 -0.359914 -1.211411
v -0.728476 -0.359914 -1.090241
v -0.927174 -0.359914 -0.927174
v -1.090242 -0.359914 -0.728476
v -1.211412 -0.359914 -0.501783
v -1.286028 -0.359914 -0.255807
v -1.311222 -0.359914 0.000000
v -1.286028 -0.359914 0.255807
v -1.211412 -0.359914 0.501783
v -1.090242 -0.359914 0.728476
v -0.927174 -0.359914 0.927174
v -0.728476 -0.359914 1.090242
v -0.501783 -0.359914 1.211411
v -0.255807 -0.359914 1.286028
v 0.000000 -0.359914 1.311222
v 0.255807 -0.359914 1.286028
v 0.501783 -0.359914 1.211411
v 0.728476 -0.359914 1.090241
v 0.927174 -0.359914 0.927174
v 1.090241 -0.359914 0.728476
v 1.211411 -0.359914 0.501783
v 1.286027 -0.359914 0.255807
v 1.311222 -0.359914 0.000000
v 1.286027 -0.359914 -0.255807
v 1.211411 -0.359914 -0.501783
v 1.090242 -0.359914 -0.728476
v 0.927174 -0.359914 -0.927174
v 0.728476 -0.359914 -1.090241
v 0.501783 -0.359914 -1.211411
v 0.255807 -0.359914 -1.286028
vn 0.0000 1.0000 0.0000
vn 0.0000 -1.0000 0.0000
vn 0.6344 -0.0069 0.7730
vn -0.9569 0.0105 0.2903
vn 0.7730 -0.0085 0.6344
vn -0.8819 0.0096 0.4714
vn 0.0980 -0.0011 0.9952
vn 0.8819 -0.0096 0.4714
vn -0.7730 0.0085 0.6344
vn 0.2903 -0.0032 0.9569
vn 0.9569 -0.0105 0.2903
vn -0.6344 0.0069 0.7730
vn 0.4714 -0.0052 0.8819
vn 0.9951 -0.0109 0.0980
vn -0.4714 0.0052 0.8819
vn 0.9951 -0.0109 -0.0980
vn -0.2903 0.0032 0.9569
vn 0.9569 -0.0105 -0.2903
vn -0.0980 0.0011 0.9952
vn 0.8819 -0.0096 -0.4714
vn -0.0980 0.0011 -0.9952
vn 0.7730 -0.0085 -0.6344
vn -0.2903 0.0032 -0.9569
vn 0.6344 -0.0069 -0.7730
vn -0.4714 0.0052 -0.8819
vn 0.4714 -0.0052 -0.8819
vn -0.6344 0.0069 -0.7730
vn 0.2903 -0.0032 -0.9569
vn -0.7730 0.0085 -0.6344
vn 0.0980 -0.0011 -0.9952
vn -0.8819 0.0096 -0.4714
vn -0.9569 0.0105 -0.2903
vn -0.9951 0.0109 -0.0980
vn -0.9951 0.0109 0.0980
usemtl None
s off
f 29//1 28//1 60//1
f 28//1 27//1 59//1
f 27//1 26//1 58//1
f 26//1 25//1 57//1
f 24//1 56//1 57//1
f 23//1 55//1 56//1
f 23//1 22//1 54//1
f 21//1 53//1 54//1
f 21//1 20//1 52//1
f 20//1 19//1 51//1
f 19//1 18//1 50//1
f 18//1 17//1 49//1
f 17//1 16//1 48//1
f 16//1 15//1 47//1
f 15//1 14//1 46//1
f 14//1 13//1 45//1
f 12//1 44//1 45//1
f 11//1 43//1 44//1
f 11//1 10//1 42//1
f 9//1 41//1 42//1
f 9//1 8//1 40//1
f 8//1 7//1 39//1
f 7//1 6//1 38//1
f 6//1 5//1 37//1
f 4//1 36//1 37//1
f 3//1 35//1 36//1
f 3//1 2//1 34//1
f 2//1 1//1 33//1
f 1//1 32//1 64//1
f 31//1 63//1 64//1
f 30//1 62//1 63//1
f 29//1 61//1 62//1
f 124//2 92//2 93//2
f 123//2 91//2 92//2
f 122//2 90//2 91//2
f 121//2 89//2 90//2
f 120//2 88//2 89//2
f 87//2 88//2 120//2
f 118//2 86//2 87//2
f 85//2 86//2 118//2
f 84//2 85//2 117//2
f 115//2 83//2 84//2
f 114//2 82//2 83//2
f 113//2 81//2 82//2
f 80//2 81//2 113//2
f 111//2 79//2 80//2
f 110//2 78//2 79//2
f 109//2 77//2 78//2
f 76//2 77//2 109//2
f 75//2 76//2 108//2
f 106//2 74//2 75//2
f 73//2 74//2 106//2
f 104//2 72//2 73//2
f 103//2 71//2 72//2
f 102//2 70//2 71//2
f 101//2 69//2 70//2
f 68//2 69//2 101//2
f 67//2 68//2 100//2
f 66//2 67//2 99//2
f 97//2 65//2 66//2
f 128//2 96//2 65//2
f 95//2 96//2 128//2
f 126//2 94//2 95//2
f 125//2 93//2 94//2
f 52//3 116//3 117//3
f 27//4 91//4 90//4
f 53//5 117//5 118//5
f 28//6 92//6 91//6
f 2//7 66//7 65//7
f 54//8 118//8 119//8
f 29//9 93//9 92//9
f 3//10 67//10 66//10
f 55//11 119//11 120//11
f 30//12 94//12 93//12
f 4//13 68//13 67//13
f 56//14 120//14 121//14
f 31//15 95//15 94//15
f 5//3 69//3 68//3
f 58//16 57//16 121//16
f 32//17 96//17 95//17
f 6//5 70//5 69//5
f 59//18 58//18 122//18
f 1//19 65//19 96//19
f 7//8 71//8 70//8
f 60//20 59//20 123//20
f 34//21 33//21 97//21
f 8//11 72//11 71//11
f 61//22 60//22 124//22
f 35//23 34//23 98//23
f 9//14 73//14 72//14
f 62//24 61//24 125//24
f 36//25 35//25 99//25
f 9//16 10//16 74//16
f 63//26 62//26 126//26
f 37//27 36//27 100//27
f 10//18 11//18 75//18
f 64//28 63//28 127//28
f 38//29 37//29 101//29
f 11//20 12//20 76//20
f 33//30 64//30 128//30
f 39//31 38//31 102//31
f 12//22 13//22 77//22
f 40//32 39//32 103//32
f 13//24 14//24 78//24
f 41//33 40//33 104//33
f 14//26 15//26 79//26
f 41//34 105//34 106//34
f 15//28 16//28 80//28
f 42//4 106//4 107//4
f 16//30 17//30 81//30
f 43//6 107//6 108//6
f 17//21 18//21 82//21
f 44//9 108//9 109//9
f 18//23 19//23 83//23
f 45//12 109//12 110//12
f 19//25 20//25 84//25
f 46//15 110//15 111//15
f 20//27 21//27 85//27
f 47//17 111//17 112//17
f 21//29 22//29 86//29
f 48//19 112//19 113//19
f 22//31 23//31 87//31
f 49//7 113//7 114//7
f 23//32 24//32 88//32
f 50//10 114//10 115//10
f 24//33 25//33 89//33
f 51//13 115//13 116//13
f 26//34 90//34 89//34
f 29//1 60//1 61//1
f 28//1 59//1 60//1
f 27//1 58//1 59//1
f 26//1 57//1 58//1
f 24//1 57//1 25//1
f 23//1 56//1 24//1
f 23//1 54//1 55//1
f 21//1 54//1 22//1
f 21//1 52//1 53//1
f 20//1 51//1 52//1
f 19//1 50//1 51//1
f 18//1 49//1 50//1
f 17//1 48//1 49//1
f 16//1 47//1 48//1
f 15//1 46//1 47//1
f 14//1 45//1 46//1
f 12//1 45//1 13//1
f 11//1 44//1 12//1
f 11//1 42//1 43//1
f 9//1 42//1 10//1
f 9//1 40//1 41//1
f 8//1 39//1 40//1
f 7//1 38//1 39//1
f 6//1 37//1 38//1
f 4//1 37//1 5//1
f 3//1 36//1 4//1
f 3//1 34//1 35//1
f 2//1 33//1 34//1
f 1//1 64//1 33//1
f 31//1 64//1 32//1
f 30//1 63//1 31//1
f 29//1 62//1 30//1
f 124//2 93//2 125//2
f 123//2 92//2 124//2
f 122//2 91//2 123//2
f 121//2 90//2 122//2
f 120//2 89//2 121//2
f 87//2 120//2 119//2
f 118//2 87//2 119//2
f 85//2 118//2 117//2
f 84//2 117//2 116//2
f 115//2 84//2 116//2
f 114//2 83//2 115//2
f 113//2 82//2 114//2
f 80//2 113//2 112//2
f 111//2 80//2 112//2
f 110//2 79//2 111//2
f 109//2 78//2 110//2
f 76//2 109//2 108//2
f 75//2 108//2 107//2
f 106//2 75//2 107//2
f 73//2 106//2 105//2
f 104//2 73//2 105//2
f 103//2 72//2 104//2
f 102//2 71//2 103//2
f 101//2 70//2 102//2
f 68//2 101//2 100//2
f 67//2 100//2 99//2
f 66//2 99//2 98//2
f 97//2 66//2 98//2
f 128//2 65//2 97//2
f 95//2 128//2 127//2
f 126//2 95//2 127//2
f 125//2 94//2 126//2
f 52//3 117//3 53//3
f 27//4 90//4 26//4
f 53//5 118//5 54//5
f 28//6 91//6 27//6
f 2//7 65//7 1//7
f 54//8 119//8 55//8
f 29//9 92//9 28//9
f 3//10 66//10 2//10
f 55//11 120//11 56//11
f 30//12 93//12 29//12
f 4//13 67//13 3//13
f 56//14 121//14 57//14
f 31//15 94//15 30//15
f 5//3 68//3 4//3
f 58//16 121//16 122//16
f 32//17 95//17 31//17
f 6//5 69//5 5//5
f 59//18 122//18 123//18
f 1//19 96//19 32//19
f 7//8 70//8 6//8
f 60//20 123//20 124//20
f 34//21 97//21 98//21
f 8//11 71//11 7//11
f 61//22 124//22 125//22
f 35//23 98//23 99//23
f 9//14 72//14 8//14
f 62//24 125//24 126//24
f 36//25 99//25 100//25
f 9//16 74//16 73//16
f 63//26 126//26 127//26
f 37//27 100//27 101//27
f 10//18 75//18 74//18
f 64//28 127//28 128//28
f 38//29 101//29 102//29
f 11//20 76//20 75//20
f 33//30 128//30 97//30
f 39//31 102//31 103//31
f 12//22 77//22 76//22
f 40//32 103//32 104//32
f 13//24 78//24 77//24
f 41//33 104//33 105//33
f 14//26 79//26 78//26
f 41//34 106//34 42//34
f 15//28 80//28 79//28
f 42//4 107//4 43//4
f 16//30 81//30 80//30
f 43//6 108//6 44//6
f 17//21 82//21 81//21
f 44//9 109//9 45//9
f 18//23 83//23 82//23
f 45//12 110//12 46//12
f 19//25 84//25 83//25
f 46//15 111//15 47//15
f 20//27 85//27 84//27
f 47//17 112//17 48//17
f 21//29 86//29 85//29
f 48//19 113//19 49//19
f 22//31 87//31 86//31
f 49//7 114//7 50//7
f 23//32 88//32 87//32
f 50//10 115//10 51//10
f 24//33 89//33 88//33
f 51//13 116//13 52//13
f 26//34 89//34 25//34
